<?xml version="1.0" encoding="utf-8"?>
<!-- Generator: Adobe Illustrator 16.0.1, SVG Export Plug-In . SVG Version: 6.00 Build 0)  -->
<!DOCTYPE svg PUBLIC "-//W3C//DTD SVG 1.1//EN" "http://www.w3.org/Graphics/SVG/1.1/DTD/svg11.dtd">
<svg version="1.1" id="Layer_1" xmlns="http://www.w3.org/2000/svg" xmlns:xlink="http://www.w3.org/1999/xlink" x="0px" y="0px"
	 width="156px" height="28px" viewBox="0 0 156 28" enable-background="new 0 0 156 28" xml:space="preserve">
<g>
	<path fill="#B3DDF3" d="M2.236,9.169H0V6.985l2.236-0.312v-2.73l4.836-0.676v3.406h3.172v2.496H7.072v7.671
		c0,1.43,0.39,2.157,1.794,2.157c0.52,0,1.196-0.052,1.56-0.104v1.872c-0.806,0.468-2.444,0.857-3.952,0.857
		c-2.886,0-4.238-1.273-4.238-4.367V9.169z"/>
	<path fill="#B3DDF3" d="M10.686,19.907l1.586-0.728V3.085l-1.664-0.754V1.057l6.032-0.962h0.39v8.112h0.156
		c1.3-1.196,3.068-1.898,5.044-1.898c2.418,0,3.64,1.196,3.64,3.875v8.997l1.586,0.728v1.326H19.5v-1.326l1.534-0.728v-7.905
		c0-1.508-0.624-2.054-1.95-2.054c-0.728,0-1.378,0.156-1.976,0.39v9.569l1.534,0.728v1.326h-7.957V19.907z"/>
	<path fill="#B3DDF3" d="M32.968,14.395c0.234,2.834,1.586,4.186,4.238,4.186c1.846,0,2.886-0.182,3.9-0.493v1.403
		c-0.676,0.937-2.86,2.132-5.539,2.132c-4.992,0-7.566-2.756-7.566-7.696c0-4.81,2.834-7.592,7.176-7.592
		c4.368,0,6.474,1.95,6.474,8.06H32.968z M32.916,12.653l4.03-0.234c0-3.874-0.65-4.498-1.846-4.498
		C33.773,7.921,32.968,8.779,32.916,12.653z"/>
	<path fill="#FFFFFF" d="M57.018,22.222c0,3.458-2.47,5.642-8.164,5.642c-4.576,0-7.384-1.43-7.384-3.38
		c0-1.897,1.846-2.444,3.484-2.782v-0.156c-1.56-0.338-2.314-1.455-2.314-2.6c0-1.534,1.612-2.756,2.444-3.328v-0.156
		c-1.456-0.806-2.418-2.236-2.418-4.16c0-3.146,2.6-5.018,6.344-5.018c1.17,0,2.444,0.364,3.354,0.702h0.208l3.718-0.728h0.286
		v2.886h-0.338l-2.418-0.858v0.104c0.91,0.832,1.508,1.638,1.508,3.068c0,3.172-2.574,4.862-6.318,4.862
		c-0.962,0-1.612-0.052-2.392-0.286c-0.364,0.26-0.65,0.676-0.65,1.066c0,0.52,0.468,0.936,1.04,0.936h5.2
		C55.432,18.035,57.018,19.361,57.018,22.222z M52.832,23.573c0-0.754-0.546-1.118-1.742-1.118h-5.096
		c-0.39,0.442-0.572,0.937-0.572,1.639c0,1.014,0.91,1.949,3.562,1.949C52,26.043,52.832,25.082,52.832,23.573z M47.293,11.301
		c0,2.964,0.676,3.225,1.716,3.225s1.742-0.312,1.742-3.225s-0.676-3.354-1.742-3.354C47.969,7.947,47.293,8.337,47.293,11.301z"/>
	<path fill="#FFFFFF" d="M58.551,9.377l-1.638-0.754V7.297l6.059-0.962h0.416v10.271c0,1.664,0.806,1.949,2.028,1.949
		c0.806,0,1.248-0.129,1.742-0.338v-8.84l-1.612-0.754V7.297l6.058-0.962h0.39v12.454l1.638,0.858v1.248l-5.902,0.649h-0.39v-1.924
		h-0.182c-0.936,1.145-2.47,2.002-4.42,2.002c-2.938,0-4.186-2.105-4.186-4.628V9.377z"/>
	<path fill="#FFFFFF" d="M77.401,11.223h-2.262V7.427c1.378-0.442,3.016-1.118,5.564-1.118c3.899,0,6.24,1.145,6.24,4.42v8.451
		l1.534,0.728V21c-0.469,0.26-1.561,0.598-2.73,0.598c-1.508,0-2.859-0.494-3.094-2.055h-0.131c-0.649,1.301-2.365,2.08-4.186,2.08
		c-2.574,0-4.186-1.664-4.186-4.082c0-2.99,1.924-3.588,5.148-4.134l2.782-0.468v-1.95c0-1.846-0.546-2.782-2.418-2.782
		c-0.234,0-0.936,0.026-1.248,0.052L77.401,11.223z M82.081,14.499l-1.118,0.104c-1.118,0.104-2.028,0.858-2.028,2.237
		c0,1.611,0.885,2.131,1.82,2.131c0.52,0,1.066-0.26,1.326-0.545V14.499z"/>
	<path fill="#FFFFFF" d="M94.534,6.257h0.416v3.068h0.156c0.858-1.924,2.158-2.964,3.744-2.964c0.26,0,0.572,0.026,0.729,0.078
		v4.238c-0.286-0.078-0.807-0.13-1.223-0.13c-1.3,0-2.392,0.13-3.224,0.52v8.086l2.002,0.728v1.353h-8.372v-1.353l1.534-0.728V9.299
		l-1.612-0.754V7.219L94.534,6.257z"/>
	<path fill="#FFFFFF" d="M109.407,3.396l-1.612-0.728V1.343l6.058-0.962h0.391v18.408l1.534,0.858v1.248l-5.746,0.649h-0.416v-1.508
		h-0.156c-0.599,0.78-1.847,1.586-3.666,1.586c-2.652,0-5.824-1.689-5.824-7.28c0-5.876,3.25-7.982,7.099-7.982
		c0.806,0,1.742,0.182,2.34,0.598V3.396z M109.407,8.883c-0.364-0.286-0.78-0.52-1.639-0.52c-1.533,0-2.678,1.378-2.678,5.486
		c0,3.588,0.91,5.148,2.834,5.148c0.729,0,1.145-0.13,1.482-0.26V8.883z"/>
	<path fill="#FFFFFF" d="M122.068,6.257h0.39v12.896l1.561,0.728v1.353h-7.957v-1.353l1.561-0.728V9.299l-1.639-0.754V7.219
		L122.068,6.257z M122.536,2.851c0,1.404-1.17,2.548-2.574,2.548c-1.43,0-2.574-1.144-2.574-2.548c0-1.43,1.145-2.574,2.574-2.574
		C121.366,0.276,122.536,1.421,122.536,2.851z"/>
	<path fill="#FFFFFF" d="M127.813,11.223h-2.262V7.427c1.378-0.442,3.016-1.118,5.564-1.118c3.9,0,6.24,1.145,6.24,4.42v8.451
		l1.534,0.728V21c-0.468,0.26-1.561,0.598-2.73,0.598c-1.508,0-2.86-0.494-3.094-2.055h-0.13c-0.65,1.301-2.366,2.08-4.187,2.08
		c-2.574,0-4.187-1.664-4.187-4.082c0-2.99,1.924-3.588,5.148-4.134l2.782-0.468v-1.95c0-1.846-0.546-2.782-2.418-2.782
		c-0.234,0-0.937,0.026-1.248,0.052L127.813,11.223z M132.494,14.499l-1.118,0.104c-1.118,0.104-2.027,0.858-2.027,2.237
		c0,1.611,0.883,2.131,1.819,2.131c0.521,0,1.066-0.26,1.326-0.545V14.499z"/>
	<path fill="#FFFFFF" d="M139.176,19.907l1.586-0.728V9.299l-1.664-0.754V7.271l6.032-0.962h0.391v1.898h0.155
		c1.3-1.196,3.068-1.898,5.044-1.898c2.418,0,3.641,1.196,3.641,3.875v8.997l1.586,0.728v1.326h-7.956v-1.326l1.534-0.728v-7.905
		c0-1.508-0.625-2.054-1.95-2.054c-0.729,0-1.378,0.156-1.977,0.39v9.569l1.534,0.728v1.326h-7.956V19.907z"/>
</g>
</svg>
